# xmcd
#
# Track frame offsets: 
#        150
#        12750
#        30000
#        48300
#        69575
#        84550
#        99600
#        113025
#
# Disc length: 1735 seconds
#
# Revision: 4
# Processed by: cddbd v1.5.2PL0 Copyright (c) Steve Scherf et al.
# Submitted via: ExactAudioCopyFreeDBPlugin 1.0
#
DISCID=5406c508
DTITLE=Dolly Parton - 9 To 5 And Odd Jobs
DYEAR=1980
DGENRE=Country
TTITLE0=9 To 5
TTITLE1=Hush-A-Bye Hard Times
TTITLE2=The House Of The Rising Sun
TTITLE3=Deportee (Plane Wreck At Los Gatos)
TTITLE4=Working Girl
TTITLE5=But You Know I Love You
TTITLE6=Poor Folks Town
TTITLE7=Sing For The Common Man
EXTD=
EXTT0=
EXTT1=
EXTT2=
EXTT3=
EXTT4=
EXTT5=
EXTT6=
EXTT7=
PLAYORDER=
